<svg xmlns="http://www.w3.org/2000/svg" version="1.1" xmlns:xlink="http://www.w3.org/1999/xlink" xmlns:svgjs="http://svgjs.dev/svgjs" width="1440" height="560" preserveAspectRatio="none" viewBox="0 0 1440 560"><g mask="url(&quot;#SvgjsMask1143&quot;)" fill="none"><path d="M716.880729550264 214.93319603894815L820.0009715344925 325.5161169130083 930.5838924085526 222.39587492877993 827.4636504243242 111.81295405471974z" fill="rgba(230, 169, 99, 0.8)" class="triangle-float3"></path><path d="M738.9032065260947 193.24853691292236L742.3892502766439 93.42130511686788 642.5620184805895 89.9352613663186 639.0759747300402 189.7624931623731z" fill="rgba(230, 169, 99, 0.8)" class="triangle-float3"></path><path d="M834.2277023649968 66.59475152841235L891.50292933543 169.92199617708368 994.8301739841014 112.6467692066505 937.5549470136682 9.319524557979157z" fill="rgba(230, 169, 99, 0.8)" class="triangle-float3"></path><path d="M1294.2122593472227 67.72197990657511L1252.675574041903-17.440845541392306 1167.5127485939356 24.095839763927444 1209.0494338992553 109.25866521189486z" fill="rgba(230, 169, 99, 0.8)" class="triangle-float2"></path><path d="M1486.7128795142785 0.7998095442458926L1413.035470887352-30.47439494146872 1402.9628684722431 95.67882024177851z" fill="rgba(230, 169, 99, 0.8)" class="triangle-float2"></path><path d="M577.9205653970864 599.0005289868001L701.3473325529268 556.5012848359703 658.8480884020971 433.07451768012993 535.4213212462566 475.57376183095965z" fill="rgba(230, 169, 99, 0.8)" class="triangle-float3"></path><path d="M195.137,286.645C211.432,285.886,225.637,276.853,234.168,262.948C243.163,248.287,246.241,230.684,239.059,215.055C230.488,196.404,215.662,178.196,195.137,178.019C174.419,177.841,159.389,195.876,149.885,214.287C141.261,230.992,139.282,250.966,149.251,266.906C158.714,282.037,177.31,287.476,195.137,286.645" fill="rgba(230, 169, 99, 0.8)" class="triangle-float2"></path><path d="M646.9789569295791 239.77391247364025L586.5692435650056 375.4563501914854 722.2516812828508 435.86606355605886 782.6613946474242 300.18362583821374z" fill="rgba(230, 169, 99, 0.8)" class="triangle-float2"></path><path d="M429.851,670.924C465.47,669.889,491.694,641.476,509.129,610.399C526.104,580.142,534.966,543.997,518.057,513.703C500.788,482.764,465.265,469.486,429.851,468.365C391.984,467.166,350.828,475.262,331.409,507.793C311.632,540.923,322.234,582.217,342.169,615.252C361.341,647.022,392.76,672.002,429.851,670.924" fill="rgba(230, 169, 99, 0.8)" class="triangle-float3"></path><path d="M1050.166159521348 108.30949927644878L1202.119935696343 182.60165556120188 1194.3816784434205 34.94691119338589z" fill="rgba(230, 169, 99, 0.8)" class="triangle-float1"></path></g><defs><mask id="SvgjsMask1143"><rect width="1440" height="560" fill="#ffffff"></rect></mask><style>
                @keyframes float1 {
                    0%{transform: translate(0, 0)}
                    50%{transform: translate(-10px, 0)}
                    100%{transform: translate(0, 0)}
                }

                .triangle-float1 {
                    animation: float1 5s infinite;
                }

                @keyframes float2 {
                    0%{transform: translate(0, 0)}
                    50%{transform: translate(-5px, -5px)}
                    100%{transform: translate(0, 0)}
                }

                .triangle-float2 {
                    animation: float2 4s infinite;
                }

                @keyframes float3 {
                    0%{transform: translate(0, 0)}
                    50%{transform: translate(0, -10px)}
                    100%{transform: translate(0, 0)}
                }

                .triangle-float3 {
                    animation: float3 6s infinite;
                }
            </style></defs></svg>